<svg xmlns="http://www.w3.org/2000/svg" xmlns:xlink="http://www.w3.org/1999/xlink" width="1000" zoomAndPan="magnify" viewBox="0 0 750 749.999995" height="1000" preserveAspectRatio="xMidYMid meet" version="1.2"><defs><clipPath id="b68c8953b1"><path d="M 42 137.152344 L 708 137.152344 L 708 596.902344 L 42 596.902344 Z M 42 137.152344 "/></clipPath><clipPath id="be70411314"><path d="M 326 271 L 631 271 L 631 545 L 326 545 Z M 326 271 "/></clipPath><clipPath id="5f7990b593"><path d="M 310.679688 517.871094 L 576.375 252.175781 L 671.304688 347.105469 L 405.609375 612.800781 Z M 310.679688 517.871094 "/></clipPath><clipPath id="c206061321"><path d="M 405.648438 612.839844 L 671.34375 347.144531 L 576.414062 252.214844 L 310.71875 517.910156 Z M 405.648438 612.839844 "/></clipPath></defs><g id="212ef56876"><g clip-rule="nonzero" clip-path="url(#b68c8953b1)"><path style=" stroke:none;fill-rule:nonzero;fill:#000000;fill-opacity:1;" d="M 356.835938 137.152344 C 355.539062 137.152344 354.25 137.257812 352.96875 137.464844 C 351.691406 137.671875 350.433594 137.980469 349.203125 138.390625 C 347.972656 138.800781 346.785156 139.308594 345.636719 139.910156 C 344.488281 140.511719 343.394531 141.199219 342.355469 141.976562 C 341.316406 142.757812 340.347656 143.613281 339.449219 144.546875 C 338.546875 145.480469 337.726562 146.480469 336.988281 147.546875 C 336.25 148.613281 335.597656 149.730469 335.039062 150.902344 C 334.480469 152.070312 334.015625 153.28125 333.648438 154.523438 L 234.527344 491.859375 L 186.394531 347.28125 C 185.996094 346.082031 185.503906 344.921875 184.925781 343.800781 C 184.34375 342.679688 183.679688 341.609375 182.933594 340.589844 C 182.183594 339.574219 181.363281 338.621094 180.464844 337.730469 C 179.566406 336.84375 178.605469 336.027344 177.582031 335.289062 C 176.558594 334.550781 175.480469 333.898438 174.355469 333.328125 C 173.230469 332.757812 172.066406 332.28125 170.863281 331.894531 C 169.660156 331.507812 168.4375 331.214844 167.191406 331.019531 C 165.941406 330.824219 164.6875 330.726562 163.425781 330.730469 L 66.722656 330.730469 C 65.929688 330.730469 65.140625 330.769531 64.351562 330.847656 C 63.5625 330.925781 62.78125 331.039062 62.003906 331.195312 C 61.226562 331.347656 60.460938 331.542969 59.703125 331.773438 C 58.945312 332.003906 58.199219 332.269531 57.46875 332.570312 C 56.738281 332.875 56.023438 333.214844 55.324219 333.585938 C 54.625 333.960938 53.949219 334.367188 53.289062 334.808594 C 52.632812 335.25 51.996094 335.71875 51.382812 336.222656 C 50.773438 336.726562 50.1875 337.257812 49.625 337.816406 C 49.066406 338.378906 48.535156 338.964844 48.03125 339.578125 C 47.53125 340.1875 47.058594 340.824219 46.621094 341.484375 C 46.179688 342.144531 45.773438 342.820312 45.398438 343.519531 C 45.027344 344.21875 44.6875 344.933594 44.386719 345.667969 C 44.082031 346.398438 43.816406 347.144531 43.585938 347.902344 C 43.355469 348.660156 43.164062 349.429688 43.007812 350.207031 C 42.855469 350.984375 42.738281 351.765625 42.660156 352.554688 C 42.582031 353.34375 42.546875 354.136719 42.546875 354.925781 C 42.546875 355.71875 42.582031 356.511719 42.660156 357.300781 C 42.738281 358.085938 42.855469 358.871094 43.007812 359.648438 C 43.164062 360.425781 43.355469 361.191406 43.585938 361.953125 C 43.816406 362.710938 44.082031 363.457031 44.386719 364.1875 C 44.6875 364.917969 45.027344 365.636719 45.398438 366.335938 C 45.773438 367.03125 46.179688 367.710938 46.621094 368.371094 C 47.058594 369.03125 47.53125 369.664062 48.03125 370.277344 C 48.535156 370.890625 49.066406 371.476562 49.625 372.039062 C 50.1875 372.597656 50.773438 373.128906 51.382812 373.632812 C 51.996094 374.136719 52.632812 374.605469 53.289062 375.046875 C 53.949219 375.488281 54.625 375.894531 55.324219 376.265625 C 56.023438 376.640625 56.738281 376.980469 57.46875 377.28125 C 58.199219 377.585938 58.945312 377.851562 59.703125 378.082031 C 60.460938 378.3125 61.226562 378.503906 62.003906 378.660156 C 62.78125 378.8125 63.5625 378.929688 64.351562 379.007812 C 65.140625 379.085938 65.929688 379.125 66.722656 379.125 L 145.996094 379.125 L 213.011719 580.351562 C 213.410156 581.546875 213.898438 582.707031 214.480469 583.828125 C 215.058594 584.949219 215.722656 586.019531 216.46875 587.035156 C 217.214844 588.050781 218.039062 589.003906 218.933594 589.894531 C 219.828125 590.78125 220.789062 591.59375 221.8125 592.332031 C 222.835938 593.070312 223.910156 593.726562 225.035156 594.296875 C 226.160156 594.867188 227.324219 595.34375 228.523438 595.730469 C 229.722656 596.121094 230.949219 596.410156 232.195312 596.609375 C 233.441406 596.804688 234.691406 596.902344 235.953125 596.902344 L 236.390625 596.902344 C 237.667969 596.878906 238.9375 596.753906 240.195312 596.527344 C 241.453125 596.304688 242.6875 595.980469 243.894531 595.558594 C 245.101562 595.136719 246.269531 594.625 247.394531 594.019531 C 248.519531 593.414062 249.59375 592.722656 250.609375 591.945312 C 251.625 591.167969 252.574219 590.316406 253.457031 589.390625 C 254.335938 588.464844 255.140625 587.472656 255.863281 586.417969 C 256.589844 585.363281 257.226562 584.257812 257.773438 583.101562 C 258.324219 581.945312 258.777344 580.753906 259.140625 579.527344 L 374.917969 185.546875 L 683.214844 185.546875 C 684.003906 185.546875 684.796875 185.507812 685.582031 185.429688 C 686.371094 185.351562 687.152344 185.234375 687.929688 185.082031 C 688.707031 184.925781 689.472656 184.734375 690.230469 184.503906 C 690.988281 184.273438 691.734375 184.007812 692.464844 183.703125 C 693.195312 183.402344 693.910156 183.0625 694.609375 182.6875 C 695.308594 182.316406 695.988281 181.90625 696.644531 181.46875 C 697.304688 181.027344 697.9375 180.554688 698.550781 180.054688 C 699.164062 179.550781 699.75 179.019531 700.308594 178.457031 C 700.867188 177.898438 701.398438 177.3125 701.902344 176.699219 C 702.402344 176.085938 702.875 175.449219 703.316406 174.792969 C 703.753906 174.132812 704.160156 173.453125 704.535156 172.753906 C 704.90625 172.054688 705.246094 171.339844 705.550781 170.609375 C 705.851562 169.875 706.117188 169.132812 706.347656 168.371094 C 706.578125 167.613281 706.769531 166.847656 706.925781 166.070312 C 707.078125 165.292969 707.195312 164.507812 707.273438 163.71875 C 707.351562 162.929688 707.390625 162.140625 707.390625 161.347656 C 707.390625 160.554688 707.351562 159.765625 707.273438 158.976562 C 707.195312 158.1875 707.078125 157.40625 706.925781 156.628906 C 706.769531 155.851562 706.578125 155.082031 706.347656 154.324219 C 706.117188 153.566406 705.851562 152.820312 705.550781 152.089844 C 705.246094 151.355469 704.90625 150.640625 704.535156 149.941406 C 704.160156 149.242188 703.753906 148.5625 703.316406 147.90625 C 702.875 147.246094 702.402344 146.609375 701.902344 145.996094 C 701.398438 145.386719 700.867188 144.796875 700.308594 144.238281 C 699.75 143.679688 699.164062 143.144531 698.550781 142.644531 C 697.9375 142.140625 697.304688 141.667969 696.644531 141.230469 C 695.988281 140.789062 695.308594 140.382812 694.609375 140.007812 C 693.910156 139.632812 693.195312 139.296875 692.464844 138.992188 C 691.734375 138.691406 690.988281 138.421875 690.230469 138.191406 C 689.472656 137.964844 688.707031 137.769531 687.929688 137.617188 C 687.152344 137.460938 686.371094 137.34375 685.582031 137.269531 C 684.796875 137.191406 684.003906 137.152344 683.214844 137.152344 Z M 356.835938 137.152344 "/></g><g clip-rule="nonzero" clip-path="url(#be70411314)"><g clip-rule="nonzero" clip-path="url(#5f7990b593)"><g clip-rule="nonzero" clip-path="url(#c206061321)"><path style=" stroke:none;fill-rule:nonzero;fill:#000000;fill-opacity:1;" d="M 326.773438 525.203125 C 325.476562 531.992188 329.582031 534.378906 333.773438 536.390625 C 345.339844 542.007812 357.472656 545.339844 370.507812 544.960938 C 412.023438 543.726562 450.414062 531.488281 485.890625 510.511719 C 522.269531 489.011719 549.199219 458.8125 564.933594 419.3125 C 572.332031 400.726562 578.722656 381.71875 585.808594 362.230469 C 586.769531 364.15625 588.175781 366.441406 589.160156 368.933594 C 595.949219 385.824219 599.175781 388.171875 617.554688 388.488281 C 621.664062 388.570312 625.769531 387.898438 630.988281 387.5 C 630.066406 383.5625 629.480469 380.710938 628.722656 377.902344 C 620.675781 347.6875 612.085938 317.59375 604.898438 287.144531 C 603.136719 279.769531 599.367188 276.5 593.644531 274.46875 C 582.117188 270.402344 569.984375 271.386719 558.355469 273.417969 C 554.289062 274.132812 550.371094 279.140625 547.480469 282.996094 C 526.398438 311.328125 502.90625 337.460938 476.042969 360.34375 C 467.660156 367.46875 458.207031 373.316406 448.464844 380.335938 C 450.015625 383.730469 454.289062 384.945312 458.082031 385.804688 C 475.894531 389.828125 493.371094 390.539062 509.046875 378.722656 C 516.445312 373.125 523.882812 367.613281 531.21875 361.957031 C 534.488281 359.441406 537.503906 356.59375 541.359375 353.28125 C 542.511719 380.964844 498.023438 453.070312 464.640625 478.828125 C 424.050781 510.15625 377.613281 524.742188 326.773438 525.203125 Z M 326.773438 525.203125 "/></g></g></g></g></svg>